<?xml version="1.0" encoding="UTF-8"?>
<svg width="400.8mm" height="451.6mm" clip-rule="evenodd" fill-rule="evenodd" image-rendering="optimizeQuality" shape-rendering="geometricPrecision" text-rendering="geometricPrecision" version="1.1" viewBox="0 0 26559 29924" xml:space="preserve" xmlns="http://www.w3.org/2000/svg" xmlns:xlink="http://www.w3.org/1999/xlink"><defs><linearGradient id="linearGradient4337"><stop stop-color="#0f0" offset="0"/><stop stop-color="#018000" stop-opacity="0" offset="1"/></linearGradient><linearGradient id="linearGradient3941"><stop stop-color="#018000" offset="0"/><stop stop-color="#018000" stop-opacity="0" offset="1"/></linearGradient><style type="text/css"><![CDATA[
    .fil3 {fill:none}
    .fil8 {fill:#714B3C}
    .fil2 {fill:#947451}
    .fil9 {fill:#A58869}
    .fil11 {fill:#A98966}
    .fil4 {fill:#A98C6D}
    .fil0 {fill:#B3926F}
    .fil5 {fill:#C09F7D}
    .fil1 {fill:#D0B08E}
    .fil6 {fill:#DDC5AC}
    .fil7 {fill:white}
    .fil12 {fill:#675341;fill-rule:nonzero}
    .fil10 {fill:#9B7B58;fill-rule:nonzero}
   ]]></style><linearGradient id="linearGradient3943" x1="15974" x2="22239" y1="9825.4" y2="9825.4" gradientUnits="userSpaceOnUse" xlink:href="#linearGradient4337"/><linearGradient id="linearGradient4267" x1="15596" x2="22509" y1="393.17" y2="19642" gradientUnits="userSpaceOnUse" xlink:href="#linearGradient3941"/><linearGradient id="linearGradient4609" x1="1327.1" x2="894.37" y1="1122" y2="30.453" gradientUnits="userSpaceOnUse"><stop stop-color="#0f0" offset="0"/><stop stop-color="#b3926f" stop-opacity="0" offset="1"/></linearGradient><linearGradient id="linearGradient7301" x1="1500.2" x2="682.8" y1="46.481" y2="1208.5" gradientTransform="matrix(12.996 0 0 12.996 6918.7 -1061.9)" gradientUnits="userSpaceOnUse"><stop stop-color="#947451" offset="0"/><stop stop-color="#947451" stop-opacity="0" offset="1"/></linearGradient></defs><g shape-rendering="geometricPrecision"><g image-rendering="optimizeQuality"><g transform="matrix(-8.851 0 0 8.851 26562 0)"><path class="fil0" d="m0 803 18 1595 1519 980v-1687z" fill="#b3926f"/><path class="fil1" d="m2998 847-1461 844-899-519-638-369 1537-800z" fill="#d0b08e"/><path class="fil2" d="m2995 2529-1134 655zm0 0-3-1686-1458 842v1687l9 2z" fill="#947451"/><path class="fil3" d="m2267 1269-1328-767" fill="none"/><path class="fil3" d="m2267 1269 4 38" fill="none"/><path class="fil4" d="m2998 879v-32l-15-8-1446 835v42z" fill="#a98c6d"/><path class="fil5" d="m1537 1674v42l-1537-883 17-39z" fill="#c09f7d"/><path class="fil6" d="m942 310 1484 867-313 181-1485-882z" fill="#ddc5ac"/><path class="fil7" d="m2259 1239 28-22c27-21 36-23 68-30-30 24-64 41-91 62-7-4-9-8-6-10z" fill="#fff"/><path class="fil7" d="m2121 1321 28-22c27-21 36-23 68-30-30 24-64 41-91 62-7-4-9-8-6-10z" fill="#fff"/><path class="fil8" d="m2998 879v-4l-3-17-1455 840 8 12z" fill="#714b3c"/><path class="fil9" d="m2349 1656-49-32-29 60-43-24-33 74-36-35-36 73-10-414 313-181v420l-44-14z" fill="#a58869"/><path class="fil10" d="m2275 1264-12 7-1491-862 9-7z" fill="#9b7b58" fill-rule="nonzero"/><path class="fil11" d="m1522 1707 15-24 27 17v1658l-37 14z" fill="#a98966"/><path class="fil12" d="m3001 849v1677c0 4-1 7-6 10l-1463 845-1515-982 1515 969 1457-841v-1684l12 7z" fill="#675341" fill-rule="nonzero"/><path class="fil12" d="m11 810-11-7 1531-803h12l356 206 1 7-6 3-357-206z" fill="#675341" fill-rule="nonzero"/></g></g><g transform="matrix(.74126 0 0 .74126 -121.9 -685.79)" image-rendering="optimizeQuality"><rect x="17409" y="1233.8" width="3448.5" height="11727" rx="881.3" fill="#fff" stroke="#e1df7b" stroke-miterlimit="2" stroke-width="1.9"/><path transform="matrix(20.346 0 0 20.503 5432.5 -2753.6)" d="m670.95 1040.4c-24.459 0-186.94-281.42-174.71-302.61s337.19-21.182 349.42-1e-5c12.23 21.182-150.25 302.61-174.71 302.61z" fill="#fff" image-rendering="optimizeQuality" shape-rendering="geometricPrecision" stroke="#e1df7b" stroke-miterlimit="2" stroke-width=".1"/><g stroke="url(#linearGradient3943)"><g fill="url(#linearGradient4267)"><g fill="url(#linearGradient4267)" stroke="url(#linearGradient3943)"><g fill="url(#linearGradient4267)" shape-rendering="geometricPrecision" stroke="url(#linearGradient3943)" stroke-miterlimit="2"><path transform="matrix(17.808 0 0 17.945 7157.8 -617.3)" d="m670.95 1040.4c-24.459 0-186.94-281.42-174.71-302.61s337.19-21.182 349.42-1e-5c12.23 21.182-150.25 302.61-174.71 302.61z" image-rendering="optimizeQuality" stroke-width=".1"/><rect x="17759" y="1581.6" width="2746.3" height="11379" rx="701.85" image-rendering="optimizeQuality" stroke-width="1.6702"/></g></g><path transform="matrix(17.532 0 0 17.532 0 -.2449)" d="m1084.6 1027.4c-23.317-14.18-126.04-184.22-161.35-267.1-10.282-24.129-13.77-37.449-10.759-41.078 4.446-5.3572 37.019-10.745 79.995-13.231l19.613-1.1348 0.4218-292.71 0.4217-292.71 3.4659-6.4112c4.0857-7.5579 11.944-15.289 19.775-19.455 5.1238-2.7258 9.9149-2.9844 55.297-2.9844 48.066 0 49.901 0.11457 56.25 3.5119 3.6097 1.9315 8.8404 6.1057 11.624 9.2758 10.636 12.113 9.8624-12.143 9.8624 309.31v292.06l27.155 1.9257c48.736 3.4561 69.69 7.9646 71.555 15.396 3.2755 13.051-40.582 103.27-92.733 190.76-35.293 59.208-70.096 108.68-80.845 114.92-4.4599 2.5893-4.941 2.572-9.747-0.3507z" stroke-miterlimit="2" stroke-width=".16028"/><path transform="matrix(17.532 0 0 17.532 0 -.2449)" d="m1081 1024.7c-38.658-34.925-169.82-266.9-169.82-300.35 0-6.1192 4.2834-8.7854 19.133-11.909 11.085-2.3318 52.39-6.6904 72.227-7.6215l8.8154-0.4138 1.6028-586.86 4.3555-6.5814c5.1924-7.8461 11.51-14.04 18.084-17.732 4.2297-2.375 10.982-2.7 56.098-2.7 56.022 0 53.655-0.3644 65.159 10.029 12.944 11.694 11.68-19.438 12.577 309.73l0.8014 294.12 27.248 1.9457c31.695 2.2633 56.873 6.0811 64.88 9.8381 7.3837 3.4642 7.8137 7.7527 2.3614 23.55-26.948 78.074-154.96 290.84-174.99 290.84-1.1189 0-4.9604-2.6434-8.5365-5.8743z" stroke-miterlimit="2" stroke-width=".16028"/></g><path transform="matrix(17.532 0 0 17.532 0 -.2449)" d="m1076.3 1019.7c-43.179-45.017-165.11-262.51-165.11-294.51 0-3.9204 1.0307-6.1527 3.626-7.8532 7.1775-4.7029 32.391-8.769 74.707-12.048 10.907-0.8451 20.168-1.8739 20.58-2.2862 0.4123-0.41227 1.1145-132.26 1.5604-292.98l0.8108-292.23 5.7262-8.5236c3.1494-4.688 9.0305-10.819 13.069-13.624l7.3431-5.1002h52.091c56.846 0 54.07-0.41489 66.828 9.9863 12.289 10.018 11.336-13.647 12.538 311.38 0.5919 160 1.3501 291.19 1.6849 291.54 0.3347 0.34449 13.069 1.6101 28.298 2.8125 49.631 3.9184 67.27 8.3244 68.273 17.053 3.8505 33.533-155.12 307.28-178.45 307.28-1.7884 0-7.6412-4.6899-13.581-10.883z" fill="url(#linearGradient4609)" stroke-miterlimit="2" stroke-width=".16028"/></g></g><path d="m20924 12595c-366.36-88.866-668.73-389.73-768.53-764.7-25.384-95.373-29.803-810.31-30.015-4855.9l-0.247-4744.1h-1601.7c-1538.9 0-1606.9-1.6205-1734.1-41.317-246.22-76.845-462.07-292.7-538.92-538.92-131.2-420.38 54.197-841.48 457.83-1039.9l115.34-56.7h8623.7l117.15 57.554c399.9 196.47 586.38 621.37 456.03 1039-76.844 246.22-292.7 462.07-538.92 538.92-127.13 39.676-195.15 41.317-1713.3 41.317h-1580.9l-0.247 4744.1c-0.208 4045.6-4.629 4760.6-30.013 4855.9-147.08 552.58-698.32 894.43-1233.1 764.7z" image-rendering="optimizeQuality" stroke="#008000" stroke-miterlimit="2" stroke-width="2.083"/><g transform="matrix(.74126 0 0 .74126 6918.7 -1060.7)" image-rendering="optimizeQuality" stroke="#008000" stroke-miterlimit="2"><rect x="17816" y="3110.5" width="2782" height="15344" ry="1430.4" stroke-width="1.7779"/><rect x="12533" y="2162.7" width="13292" height="2277" ry="1138.5" stroke-width="1.6945"/></g><path d="m20874 12584c-264.18-84.54-500.46-278.27-628.28-515.13-128.51-238.13-120.46 102.51-120.46-5094.5v-4744.4l-3301.6-11.386-119.83-56.156c-167.08-78.299-334.67-243.21-416.89-410.22-63.595-129.18-67.357-149.67-67.357-366.83 0-217.16 3.762-237.65 67.357-366.83 81.794-166.15 240.48-322.59 418.2-412.31l127.74-64.484h8605.3l127.74 64.484c177.73 89.716 336.41 246.16 418.21 412.31 63.594 129.18 67.357 149.67 67.357 366.83 0 217.16-3.763 237.65-67.357 366.83-82.222 167.01-249.81 331.92-416.89 410.22l-119.83 56.156-3259.9 11.398v4744.4c0 4138.3-3.97 4759.7-31.072 4863.7-92.871 356.55-376.82 645.78-738.22 751.93-148.41 43.591-397.72 40.824-544.16-6.037z" fill="url(#linearGradient7301)" image-rendering="optimizeQuality" stroke="#008000" stroke-miterlimit="2" stroke-width="2.083"/><path transform="matrix(17.532 0 0 17.532 0 -.2449)" d="m236.02 1069.6c-3.865-2.04-7.107-2.4-9.73-1.1-2.555 1.21-4.626 3.52-6.217 6.91-1.526 3.42-2.977 7.98-4.354 13.69-1.314 5.62-2.449 10.45-3.403 14.48l-33.039 138.04c-1.331 5.4-2.281 9.67-2.852 12.81-0.57 3.13-0.839 6.34-0.809 9.63 0.053 5.7 1.394 11.61 4.03 17.74 2.642 6.14 5.665 10.29 9.069 12.45 4.025 2.54 6.912 2.28 8.651-0.8 1.74-3.2 3.816-10.1 6.231-20.72l6.208-27.34 56.76 34.42 7.126 35.67c0.95 4.45 2.07 9.63 3.36 15.55 1.356 5.86 2.604 10.39 3.743 13.61 1.14 3.11 2.54 5.88 4.2 8.29 1.664 2.54 3.654 4.54 5.972 6 3.984 2.52 7.358 2.25 10.12-0.83 2.834-3.15 4.228-7.68 4.176-13.58-0.049-5.67-1.637-15.68-4.758-30l-39.244-184.55c-1.82-9.03-3.332-16.25-4.537-21.65-1.141-5.47-2.567-10.75-4.279-15.85-1.645-5.05-3.826-9.59-6.54-13.61-2.645-4.1-5.942-7.19-9.884-9.26zm151.21 79.61c-10.429-5.49-20.147-7.53-29.169-6.16-8.956 1.36-16.683 6.14-23.203 14.31-6.486 8.02-11.418 19.21-14.815 33.57-3.319 14.36-4.885 31.82-4.706 52.39 0.111 12.67 0.892 25.04 2.346 37.12 1.523 12.14 3.722 24.05 6.599 35.76 2.883 11.62 6.347 22.69 10.394 33.21 4.551 11.67 9.516 21.94 14.904 30.8 5.48 8.83 11.567 16.65 18.27 23.47 6.739 6.85 14.251 12.91 22.549 18.16 11.029 6.98 20.742 10.18 29.108 9.57 8.422-0.61 15.362-3.95 20.793-10.02 5.454-6.22 9.426-13.51 11.902-21.87 2.556-8.45 3.8-16.98 3.73-25.57-0.056-6.75-1.538-13.25-4.44-19.48-2.896-6.23-6.33-10.51-10.296-12.84-4.624-2.73-7.95-2.45-9.99 0.83-2.037 3.14-3.728 7.81-5.073 14.02-3.194 12.92-8.025 21.25-14.474 25-6.344 3.66-14.132 2.64-23.34-3.04-8.43-5.19-15.77-13.02-22.042-23.48-6.241-10.41-11.084-23.28-14.547-38.63-3.455-15.43-5.265-33.18-5.439-53.3-0.26-30.13 3.291-51.28 10.688-63.51 7.512-12.25 17.766-14.89 30.827-7.8 8.276 4.49 15.29 11.54 21.02 21.15 5.829 9.69 10.938 22.33 15.321 37.92 2.651 9.47 5.03 16.43 7.132 20.88 2.181 4.51 5.394 7.97 9.647 10.38 3.816 2.16 7.061 1.62 9.729-1.63 2.674-3.26 3.987-8.02 3.935-14.28-0.094-11.42-2.986-25.05-8.657-40.84-5.648-15.84-13.671-30.84-24.026-44.96-10.273-14-21.845-24.37-34.677-31.13zm115.15 60.63c-5.317-2.8-9.502-2.2-12.564 1.76-2.978 4-4.419 11.58-4.328 22.77l1.656 203.11c0.071 8.69 0.242 15.4 0.511 20.14 0.27 4.74 0.96 9.18 2.072 13.34 1.508 5.15 3.63 9.83 6.372 14.03 2.747 4.22 5.609 7.27 8.582 9.15 5.181 3.28 9.412 3.21 12.685-0.22 3.281-3.56 4.877-11.13 4.784-22.69l-0.459-57.17 28.9-26.94 44.214 129.92c1.796 5.75 3.85 12.17 6.164 19.28 2.317 7.12 5.134 13.47 8.457 19.05 3.331 5.46 7.635 9.87 12.92 13.21 5.648 3.57 10.097 4.04 13.333 1.39 3.331-2.6 4.976-7.11 4.927-13.54-0.045-5.78-1.042-12.28-2.99-19.49-1.946-7.33-4.843-16.22-8.687-26.64l-53.46-146.83 44.982-41.11c5.671-5.26 8.483-12.15 8.418-20.66-0.055-7.08-1.82-13.95-5.287-20.61-3.374-6.73-7.784-11.53-13.224-14.39-4.15-2.19-7.477-2.58-9.984-1.19-2.419 1.43-5.368 4.06-8.842 7.89l-70.354 76.86-0.78-97.07c-0.092-11.46-1.825-20.84-5.196-28.14-3.285-7.37-7.562-12.44-12.822-15.21zm-406.77-210.21c-5.4997-2.906-9.4747-2.799-11.94 0.307-2.4598 3.096-3.6381 9.806-3.5398 20.136l1.6997 178.47c0.0882 9.26 1.293 17.02 3.6187 23.3 2.3292 6.18 5.3673 10.46 9.12 12.84 3.5964 2.27 6.561 1.72 8.887-1.67 2.332-3.39 3.454-9.82 3.365-19.29l-0.626-66.25 23.382 13.82c15.916 9.41 27.986 10.32 36.086 2.59 8.157-7.9 12.145-24.17 11.919-48.77-0.106-11.54-1.229-22.49-3.363-32.83-2.131-10.33-5.204-19.73-9.214-28.2-3.936-8.41-8.585-15.39-13.937-20.94-5.388-5.66-13.017-11.09-22.843-16.28zm9.5716 40.513 17.145 9.32c11.516 6.27 19.223 13.96 23.042 23.05 3.414 8.46 5.174 17.97 5.272 28.5 0.082 8.8-0.943 15.3-3.072 19.48-2.124 4.18-5.254 6.27-9.383 6.27-4.055 0.03-9.121-1.7-15.183-5.19l-17.145-9.87zm131.13 82.25 22.143 114.73-41.707-24.64z" fill="#5f4a34" image-rendering="optimizeQuality" stroke-width="1.276"/></g></svg>
